<?xml version="1.0" encoding="UTF-8" standalone="no"?>
<!-- Created with Inkscape (http://www.inkscape.org/) -->

<svg
   width="7.1702261mm"
   height="8.1492701mm"
   viewBox="0 0 7.1702261 8.1492701"
   version="1.1"
   id="svg199"
   inkscape:version="1.1.1 (3bf5ae0d25, 2021-09-20)"
   sodipodi:docname="drawing.svg"
   xmlns:inkscape="http://www.inkscape.org/namespaces/inkscape"
   xmlns:sodipodi="http://sodipodi.sourceforge.net/DTD/sodipodi-0.dtd"
   xmlns="http://www.w3.org/2000/svg"
   xmlns:svg="http://www.w3.org/2000/svg">
  <sodipodi:namedview
     id="namedview201"
     pagecolor="#ffffff"
     bordercolor="#666666"
     borderopacity="1.0"
     inkscape:pageshadow="2"
     inkscape:pageopacity="0.0"
     inkscape:pagecheckerboard="0"
     inkscape:document-units="mm"
     showgrid="false"
     inkscape:zoom="22.777132"
     inkscape:cx="-1.2293031"
     inkscape:cy="7.0245894"
     inkscape:window-width="1366"
     inkscape:window-height="689"
     inkscape:window-x="0"
     inkscape:window-y="27"
     inkscape:window-maximized="1"
     inkscape:current-layer="layer1" />
  <defs
     id="defs196" />
  <g
     inkscape:label="Layer 1"
     inkscape:groupmode="layer"
     id="layer1"
     transform="translate(-54.257256,-111.90172)">
    <path
       class="st0"
       d="m 61.427453,114.09783 c 0,0 0,0 0,0 0,-0.0794 -0.02646,-0.15875 -0.07937,-0.21167 0,0 0,0 0,0 0,0 0,0 -0.02646,-0.0265 0,0 -0.02646,0 -0.02646,-0.0265 0,0 0,0 0,0 l -3.307292,-1.87854 c 0,0 -0.02646,0 -0.02646,0 -0.02646,-0.0529 -0.07937,-0.0529 -0.132292,-0.0529 -0.02646,0 -0.05292,0 -0.07937,0.0265 -0.02646,0 -0.02646,0.0265 -0.05292,0.0265 l -3.280833,1.87854 c 0,0 0,0 0,0 0,0 0,0 0,0 0,0 0,0 0,0 -0.05292,0.0265 -0.07937,0.0529 -0.07937,0.0529 0,0 0,0 0,0 -0.05292,0.0529 -0.07937,0.13229 -0.07937,0.21167 0,0 0,0 0,0 0,0 0,0 0,0 v 3.78354 c 0,0.10583 0.05292,0.21166 0.15875,0.26458 l 3.280833,1.87854 c 0,0 0,0 0.02646,0 0,0 0,0 0,0 0.02646,0 0.02646,0.0265 0.05292,0.0265 0,0 0,0 0,0 0.02646,0 0.05292,0 0.05292,0 0.02646,0 0.05292,0 0.05292,0 0,0 0,0 0,0 0.02646,0 0.02646,0 0.05292,-0.0265 0,0 0,0 0,0 0,0 0,0 0.02646,0 l 3.280833,-1.87854 c 0.105833,-0.0529 0.15875,-0.15875 0.15875,-0.26458 l 0.02646,-3.78354 c 0,0 0,0 0,0 z m -5.873749,-0.1323 2.222499,-1.27 c 0.05292,-0.0264 0.105834,-0.0264 0.132292,0 l 2.2225,1.29646 c 0.105833,0.0265 0.105833,0.18521 0,0.23813 l -2.2225,1.29646 c -0.05292,0.0264 -0.105833,0.0264 -0.132292,0 l -2.222499,-1.29646 c -0.105834,-0.0529 -0.105834,-0.21167 0,-0.26459 z m 1.904999,4.8948 c 0,0.10583 -0.105833,0.1852 -0.211666,0.13229 l -2.2225,-1.29646 c -0.05292,-0.0265 -0.07937,-0.0794 -0.07937,-0.10583 v -2.56646 c 0,-0.10584 0.105833,-0.18521 0.211667,-0.13229 l 2.222499,1.29645 c 0.05292,0.0265 0.07937,0.0794 0.07937,0.1323 z m 3.280834,-1.27 c 0,0.0529 -0.02646,0.10583 -0.07937,0.13229 l -2.2225,1.29646 c -0.105834,0.0529 -0.211667,-0.0265 -0.211667,-0.1323 v -2.56645 c 0,-0.0529 0.02646,-0.10584 0.07937,-0.1323 l 2.2225,-1.29645 c 0.105833,-0.0529 0.211667,0.0264 0.211667,0.13229 z"
       id="path76"
       style="fill:#ffffff;stroke-width:0.264583;fill-opacity:1" />
  </g>
</svg>
